<svg width="305" height="232" viewBox="0 0 305 232" fill="none" xmlns="http://www.w3.org/2000/svg">
<path d="M301.962 50.0594C301.962 50.0594 298.983 27.3169 289.81 17.3307C278.193 4.18773 265.207 4.1233 259.25 3.35018C216.598 -1.90735e-06 152.56 0 152.56 0H152.44C152.44 0 88.4023 -1.90735e-06 45.75 3.35018C39.793 4.1233 26.8066 4.18773 15.1904 17.3307C6.0166 27.3169 3.09766 50.0594 3.09766 50.0594C3.09766 50.0594 0 76.7964 0 103.469V128.467C0 155.139 3.03809 181.876 3.03809 181.876C3.03809 181.876 6.0166 204.619 15.1309 214.605C26.7471 227.748 41.9971 227.297 48.7881 228.714C73.2119 231.227 152.5 232 152.5 232C152.5 232 216.598 231.871 259.25 228.585C265.207 227.812 278.193 227.748 289.81 214.605C298.983 204.619 301.962 181.876 301.962 181.876C301.962 181.876 305 155.204 305 128.467V103.469C305 76.7964 301.962 50.0594 301.962 50.0594ZM120.987 158.811V66.1016L203.373 112.618L120.987 158.811Z" fill="white"/>
</svg>
