<svg width="305" height="296" viewBox="0 0 305 296" fill="none" xmlns="http://www.w3.org/2000/svg">
<g clip-path="url(#clip0_1228_1314)">
<path d="M287.827 271.971C253.028 223.757 218.198 175.558 183.381 127.354C182.928 126.726 182.509 126.072 181.944 125.238C188.041 118.488 194.109 111.767 200.185 105.049C231.755 70.1352 263.328 35.2184 294.899 0.301707C295.096 0.0827149 295.251 -0.165275 295.428 -0.400391H268.617C235.849 35.8304 203.077 72.0643 169.788 108.872C169.387 108.186 169.102 107.596 168.723 107.072C143.158 71.6649 117.589 36.2651 92.0246 0.858812C91.7431 0.46595 91.543 0.0214695 91.3022 -0.400391H0.511719C1.29857 0.823437 2.02442 2.08589 2.87584 3.26459C41.2467 56.4093 79.6277 109.548 118.009 162.69C118.409 163.243 118.793 163.81 119.352 164.612C116.235 168.084 113.101 171.591 109.943 175.082C74.2621 214.537 38.5774 253.988 2.89957 293.446C2.0516 294.386 1.30546 295.413 0.511719 296.402H27.3236C39.466 282.911 51.5847 269.401 63.751 255.93C85.3802 231.979 107.04 208.047 128.686 184.112C129.476 183.236 130.29 182.383 131.234 181.362C131.844 182.064 132.386 182.605 132.828 183.213C159.663 220.363 186.492 257.514 213.317 294.672C213.714 295.223 214.033 295.826 214.389 296.402H305.176C299.397 288.257 293.675 280.074 287.827 271.971ZM264.977 277.952C253.405 277.961 241.832 277.903 230.259 278.006C228.106 278.023 226.779 277.439 225.521 275.729C163.363 191.056 101.156 106.411 38.9572 21.7632C38.3841 20.9838 37.8617 20.169 36.9459 18.8358C48.2982 18.8358 59.0568 19.2415 69.7612 18.6811C76.0935 18.3494 79.5837 20.4653 83.1688 25.3669C143.905 108.395 204.881 191.266 265.804 274.171C266.595 275.247 267.358 276.338 268.396 277.781C266.907 277.858 265.944 277.948 264.977 277.952Z" fill="white"/>
</g>
<defs>
<clipPath id="clip0_1228_1314">
<rect width="305" height="296" fill="white"/>
</clipPath>
</defs>
</svg>
