<svg width="305" height="307" viewBox="0 0 305 307" fill="none" xmlns="http://www.w3.org/2000/svg">
<g clip-path="url(#clip0_1228_1303)">
<path d="M152.5 27.642C193.246 27.642 198.071 27.8219 214.096 28.5414C228.988 29.201 237.03 31.7193 242.392 33.818C249.48 36.5762 254.604 39.934 259.905 45.2705C265.267 50.667 268.543 55.7637 271.283 62.899C273.368 68.2955 275.87 76.4502 276.525 91.3805C277.24 107.57 277.419 112.427 277.419 153.38C277.419 194.393 277.24 199.25 276.525 215.38C275.87 230.37 273.368 238.465 271.283 243.861C268.543 250.997 265.207 256.153 259.905 261.49C254.544 266.886 249.48 270.184 242.392 272.942C237.03 275.041 228.929 277.559 214.096 278.219C198.012 278.938 193.187 279.118 152.5 279.118C111.754 279.118 106.929 278.938 90.9043 278.219C76.0117 277.559 67.9697 275.041 62.6084 272.942C55.5195 270.184 50.3965 266.826 45.0947 261.49C39.7334 256.093 36.457 250.997 33.7168 243.861C31.6318 238.465 29.1299 230.31 28.4746 215.38C27.7598 199.19 27.5811 194.333 27.5811 153.38C27.5811 112.367 27.7598 107.51 28.4746 91.3805C29.1299 76.3902 31.6318 68.2955 33.7168 62.899C36.457 55.7637 39.793 50.607 45.0947 45.2705C50.4561 39.874 55.5195 36.5762 62.6084 33.818C67.9697 31.7193 76.0713 29.201 90.9043 28.5414C106.929 27.8219 111.754 27.642 152.5 27.642ZM152.5 0C111.099 0 105.916 0.179883 89.6533 0.899414C73.4502 1.61895 62.3106 4.25723 52.6602 8.03477C42.5928 11.9922 34.0742 17.2088 25.6152 25.7832C17.0967 34.2977 11.9141 42.8721 7.98242 52.9455C4.22949 62.7191 1.6084 73.8719 0.893555 90.1812C0.178711 106.611 0 111.827 0 153.5C0 195.173 0.178711 200.389 0.893555 216.759C1.6084 233.068 4.22949 244.281 7.98242 253.995C11.9141 264.128 17.0967 272.702 25.6152 281.217C34.0742 289.731 42.5928 295.008 52.6006 298.905C62.3106 302.683 73.3906 305.321 89.5938 306.041C105.856 306.76 111.039 306.94 152.44 306.94C193.842 306.94 199.024 306.76 215.287 306.041C231.49 305.321 242.63 302.683 252.28 298.905C262.288 295.008 270.807 289.731 279.266 281.217C287.725 272.702 292.967 264.128 296.839 254.055C300.592 244.281 303.213 233.128 303.928 216.819C304.643 200.449 304.821 195.233 304.821 153.56C304.821 111.887 304.643 106.671 303.928 90.3012C303.213 73.9918 300.592 62.7791 296.839 53.0654C293.086 42.8721 287.903 34.2977 279.385 25.7832C270.926 17.2688 262.407 11.9922 252.399 8.09473C242.689 4.31719 231.609 1.67891 215.406 0.959375C199.084 0.179883 193.901 0 152.5 0Z" fill="white"/>
<path d="M152.5 74.6514C109.252 74.6514 74.165 109.968 74.165 153.5C74.165 197.032 109.252 232.349 152.5 232.349C195.748 232.349 230.835 197.032 230.835 153.5C230.835 109.968 195.748 74.6514 152.5 74.6514ZM152.5 204.647C124.442 204.647 101.687 181.742 101.687 153.5C101.687 125.258 124.442 102.353 152.5 102.353C180.558 102.353 203.313 125.258 203.313 153.5C203.313 181.742 180.558 204.647 152.5 204.647Z" fill="white"/>
<path d="M252.221 71.533C252.221 81.7264 244 89.9411 233.933 89.9411C223.806 89.9411 215.645 81.6664 215.645 71.533C215.645 61.3397 223.865 53.125 233.933 53.125C244 53.125 252.221 61.3996 252.221 71.533Z" fill="white"/>
</g>
<defs>
<clipPath id="clip0_1228_1303">
<rect width="305" height="307" fill="white"/>
</clipPath>
</defs>
</svg>
