<svg width="210" height="56" viewBox="0 0 210 56" fill="none" xmlns="http://www.w3.org/2000/svg">
<rect x="36.2078" y="5.48145" width="173" height="50" rx="25" fill="#030303"/>
<path d="M64.1638 39.4814L71.8638 21.8564H74.7138L82.4138 39.4814H79.1638L77.3888 35.2564H69.1138L67.3138 39.4814H64.1638ZM70.2388 32.5314H76.2638L73.2388 25.5314L70.2388 32.5314ZM90.38 39.7564C87.28 39.7564 84.255 37.3064 84.255 32.9064V32.8564C84.255 28.4564 87.23 26.0064 90.38 26.0064C92.53 26.0064 93.955 27.0814 94.88 28.3314V21.2314H97.905V39.4814H94.88V37.2814C93.905 38.6564 92.505 39.7564 90.38 39.7564ZM91.105 37.1314C93.13 37.1314 94.93 35.4314 94.93 32.9064V32.8564C94.93 30.3064 93.13 28.6314 91.105 28.6314C89.03 28.6314 87.305 30.2564 87.305 32.8564V32.9064C87.305 35.4564 89.03 37.1314 91.105 37.1314ZM106.377 39.5814L100.952 26.2814H104.202L107.752 35.9814L111.327 26.2814H114.502L109.102 39.5814H106.377ZM123.089 39.7814C119.064 39.7814 116.089 36.7064 116.089 32.9564V32.9064C116.089 29.1314 119.089 26.0064 123.139 26.0064C127.214 26.0064 130.164 29.0814 130.164 32.8564V32.9064C130.164 36.6314 127.164 39.7814 123.089 39.7814ZM123.139 37.1314C125.614 37.1314 127.139 35.2314 127.139 32.9564V32.9064C127.139 30.5814 125.464 28.6564 123.089 28.6564C120.664 28.6564 119.114 30.5564 119.114 32.8564V32.9064C119.114 35.2064 120.814 37.1314 123.139 37.1314ZM133.719 39.4814V21.2314H136.769V32.1314L142.244 26.2814H145.919L140.669 31.6564L146.094 39.4814H142.544L138.644 33.7564L136.769 35.7064V39.4814H133.719ZM152.351 39.7564C149.876 39.7564 147.651 38.3564 147.651 35.6814V35.6314C147.651 32.7564 149.901 31.3814 153.126 31.3814C154.626 31.3814 155.651 31.6064 156.676 31.9314V31.6064C156.676 29.7064 155.526 28.7314 153.401 28.7314C151.901 28.7314 150.826 29.0564 149.626 29.5564L148.801 27.1814C150.276 26.5564 151.701 26.1064 153.801 26.1064C155.776 26.1064 157.226 26.6064 158.176 27.5814C159.151 28.5564 159.601 29.9314 159.601 31.6564V39.4814H156.651V37.8314C155.751 38.9064 154.376 39.7564 152.351 39.7564ZM153.201 37.5564C155.201 37.5564 156.726 36.4314 156.726 34.7314V33.8314C155.951 33.5314 154.926 33.3064 153.726 33.3064C151.751 33.3064 150.626 34.1064 150.626 35.5064V35.5564C150.626 36.8314 151.726 37.5564 153.201 37.5564ZM168.249 39.7314C166.349 39.7314 164.324 39.0814 162.649 37.7564L163.999 35.7064C165.474 36.7814 166.949 37.3314 168.324 37.3314C169.624 37.3314 170.374 36.7814 170.374 35.9064V35.8564C170.374 34.8564 168.974 34.4814 167.424 34.0064C165.499 33.4814 163.299 32.6564 163.299 30.1564V30.1064C163.299 27.5814 165.374 26.0564 167.999 26.0564C169.674 26.0564 171.449 26.6314 172.849 27.5564L171.649 29.7064C170.374 28.9314 169.024 28.4564 167.924 28.4564C166.749 28.4564 166.074 29.0314 166.074 29.7564V29.8064C166.074 30.7564 167.499 31.2064 169.049 31.6814C170.949 32.2814 173.149 33.1564 173.149 35.5314V35.5814C173.149 38.3564 170.999 39.7314 168.249 39.7314ZM176.798 24.2564V21.3814H180.048V24.2564H176.798ZM176.898 39.4814V26.2814H179.948V39.4814H176.898Z" fill="white"/>
<path d="M32.1014 15.3104C33.4918 14.3587 34.1871 13.8829 34.3226 13.3975C34.4454 12.9576 34.3428 12.4863 34.0487 12.1392C33.7242 11.7562 32.8957 11.6197 31.2387 11.3465L4.4737 6.93453C3.05664 6.70094 2.34811 6.58415 1.93254 6.81048C1.55497 7.01612 1.29417 7.38617 1.22748 7.81091C1.15406 8.27841 1.5023 8.90644 2.19876 10.1625L15.4683 34.0938C16.3012 35.5959 16.7176 36.3469 17.1922 36.5227C17.6221 36.682 18.104 36.6153 18.4766 36.345C18.8878 36.0466 19.0921 35.2096 19.5009 33.5357L22.1158 22.8263C22.1889 22.5269 22.2255 22.3771 22.2914 22.2426C22.3523 22.1181 22.4316 22.0035 22.5265 21.9026C22.6292 21.7934 22.7564 21.7064 23.0107 21.5323L32.1014 15.3104Z" fill="#030303"/>
</svg>
