<svg width="208" height="86" viewBox="0 0 208 86" fill="none" xmlns="http://www.w3.org/2000/svg">
<rect width="173" height="50" rx="25" fill="#C2421B"/>
<path d="M41.0998 34V16.5H44.1748V34H41.0998ZM48.9844 34V20.8H52.0344V22.825C52.9094 21.6 54.0844 20.525 56.1594 20.525C59.1594 20.525 60.8594 22.5 60.8594 25.575V34H57.8344V26.5C57.8344 24.425 56.8094 23.275 55.0094 23.275C53.2344 23.275 52.0344 24.475 52.0344 26.55V34H48.9844ZM65.0623 18.775V15.9H68.3123V18.775H65.0623ZM65.1623 34V20.8H68.2123V34H65.1623ZM77.1906 34.25C75.2906 34.25 73.2656 33.6 71.5906 32.275L72.9406 30.225C74.4156 31.3 75.8906 31.85 77.2656 31.85C78.5656 31.85 79.3156 31.3 79.3156 30.425V30.375C79.3156 29.375 77.9156 29 76.3656 28.525C74.4406 28 72.2406 27.175 72.2406 24.675V24.625C72.2406 22.1 74.3156 20.575 76.9406 20.575C78.6156 20.575 80.3906 21.15 81.7906 22.075L80.5906 24.225C79.3156 23.45 77.9656 22.975 76.8656 22.975C75.6906 22.975 75.0156 23.55 75.0156 24.275V24.325C75.0156 25.275 76.4406 25.725 77.9906 26.2C79.8906 26.8 82.0906 27.675 82.0906 30.05V30.1C82.0906 32.875 79.9406 34.25 77.1906 34.25ZM85.74 18.775V15.9H88.99V18.775H85.74ZM85.84 34V20.8H88.89V34H85.84ZM97.1434 34.275C94.6684 34.275 92.4434 32.875 92.4434 30.2V30.15C92.4434 27.275 94.6934 25.9 97.9184 25.9C99.4184 25.9 100.443 26.125 101.468 26.45V26.125C101.468 24.225 100.318 23.25 98.1934 23.25C96.6934 23.25 95.6184 23.575 94.4184 24.075L93.5934 21.7C95.0684 21.075 96.4934 20.625 98.5934 20.625C100.568 20.625 102.018 21.125 102.968 22.1C103.943 23.075 104.393 24.45 104.393 26.175V34H101.443V32.35C100.543 33.425 99.1684 34.275 97.1434 34.275ZM97.9934 32.075C99.9934 32.075 101.518 30.95 101.518 29.25V28.35C100.743 28.05 99.7184 27.825 98.5184 27.825C96.5434 27.825 95.4184 28.625 95.4184 30.025V30.075C95.4184 31.35 96.5184 32.075 97.9934 32.075ZM112.819 34.225C110.594 34.225 109.019 33.25 109.019 30.35V23.4H107.344V20.8H109.019V17.175H112.044V20.8H115.594V23.4H112.044V29.875C112.044 31.05 112.644 31.525 113.669 31.525C114.319 31.525 114.944 31.375 115.544 31.075V33.55C114.769 33.975 113.994 34.225 112.819 34.225ZM119.222 18.775V15.9H122.472V18.775H119.222ZM119.322 34V20.8H122.372V34H119.322ZM127.501 34V23.4H125.826V20.875H127.501V19.9C127.501 18.45 127.851 17.375 128.576 16.65C129.276 15.95 130.251 15.6 131.526 15.6C132.601 15.6 133.326 15.75 134.001 15.95V18.5C133.401 18.3 132.901 18.175 132.226 18.175C131.051 18.175 130.476 18.85 130.476 20.175V20.9H133.976V23.4H130.526V34H127.501Z" fill="white"/>
<path d="M174.978 70.5674C173.612 71.5558 172.929 72.05 172.807 72.539C172.695 72.982 172.81 73.4506 173.113 73.7898C173.447 74.1641 174.279 74.2786 175.943 74.5077L202.812 78.2068C204.235 78.4027 204.946 78.5006 205.355 78.2632C205.727 78.0476 205.978 77.6707 206.034 77.2443C206.095 76.7749 205.731 76.1563 205.002 74.9191L191.118 51.3482C190.247 49.869 189.811 49.1294 189.333 48.9662C188.899 48.8184 188.419 48.8978 188.054 49.178C187.65 49.4872 187.468 50.3291 187.102 52.0131L184.765 62.7892C184.7 63.0905 184.667 63.2412 184.604 63.3775C184.547 63.5035 184.471 63.6202 184.378 63.7236C184.278 63.8354 184.154 63.9258 183.904 64.1066L174.978 70.5674Z" fill="#C2421B"/>
</svg>
