<svg width="271" height="76" viewBox="0 0 271 76" fill="none" xmlns="http://www.w3.org/2000/svg">
<rect x="56" y="26.001" width="215" height="50" rx="25" fill="#C2421B"/>
<path d="M92.4149 60.001V42.501H96.2649V50.151L103.315 42.501H108.04L100.89 49.926L108.34 60.001H103.715L98.2899 52.551L96.2649 54.651V60.001H92.4149ZM114.333 60.251C111.808 60.251 109.733 58.826 109.733 56.151V56.101C109.733 53.201 111.958 51.826 115.133 51.826C116.508 51.826 117.433 52.051 118.408 52.376V52.151C118.408 50.551 117.433 49.701 115.533 49.701C114.058 49.701 113.058 49.951 111.833 50.426L110.883 47.526C112.358 46.901 113.808 46.451 116.083 46.451C118.183 46.451 119.633 46.976 120.608 47.951C121.608 48.951 122.058 50.426 122.058 52.226V60.001H118.383V58.551C117.458 59.576 116.208 60.251 114.333 60.251ZM115.483 57.626C117.283 57.626 118.458 56.676 118.458 55.276V54.601C117.783 54.301 116.958 54.101 116.033 54.101C114.408 54.101 113.408 54.751 113.408 55.951V56.001C113.408 57.026 114.258 57.626 115.483 57.626ZM130.23 60.226C127.93 60.226 126.33 59.301 126.33 56.201V49.851H124.73V46.601H126.33V43.176H130.13V46.601H133.28V49.851H130.13V55.576C130.13 56.451 130.53 56.876 131.355 56.876C132.03 56.876 132.655 56.726 133.23 56.401V59.451C132.43 59.926 131.505 60.226 130.23 60.226ZM140.381 60.251C137.856 60.251 135.781 58.826 135.781 56.151V56.101C135.781 53.201 138.006 51.826 141.181 51.826C142.556 51.826 143.481 52.051 144.456 52.376V52.151C144.456 50.551 143.481 49.701 141.581 49.701C140.106 49.701 139.106 49.951 137.881 50.426L136.931 47.526C138.406 46.901 139.856 46.451 142.131 46.451C144.231 46.451 145.681 46.976 146.656 47.951C147.656 48.951 148.106 50.426 148.106 52.226V60.001H144.431V58.551C143.506 59.576 142.256 60.251 140.381 60.251ZM141.531 57.626C143.331 57.626 144.506 56.676 144.506 55.276V54.601C143.831 54.301 143.006 54.101 142.081 54.101C140.456 54.101 139.456 54.751 139.456 55.951V56.001C139.456 57.026 140.306 57.626 141.531 57.626ZM164.346 60.001V46.051H159.021V42.501H173.521V46.051H168.196V60.001H164.346ZM180.521 60.301C176.396 60.301 173.296 57.251 173.296 53.376V53.326C173.296 49.476 176.396 46.351 180.571 46.351C184.696 46.351 187.796 49.401 187.796 53.276V53.326C187.796 57.176 184.696 60.301 180.521 60.301ZM180.571 57.026C182.746 57.026 184.046 55.376 184.046 53.376V53.326C184.046 51.351 182.621 49.626 180.521 49.626C178.346 49.626 177.046 51.276 177.046 53.276V53.326C177.046 55.301 178.471 57.026 180.571 57.026ZM191.047 60.001V41.751H194.847V51.476L199.297 46.601H203.847L198.747 51.876L204.022 60.001H199.622L196.197 54.501L194.847 55.926V60.001H191.047ZM212.282 60.301C208.157 60.301 205.057 57.251 205.057 53.376V53.326C205.057 49.476 208.157 46.351 212.332 46.351C216.457 46.351 219.557 49.401 219.557 53.276V53.326C219.557 57.176 216.457 60.301 212.282 60.301ZM212.332 57.026C214.507 57.026 215.807 55.376 215.807 53.376V53.326C215.807 51.351 214.382 49.626 212.282 49.626C210.107 49.626 208.807 51.276 208.807 53.276V53.326C208.807 55.301 210.232 57.026 212.332 57.026ZM222.809 60.001V41.751H226.609V48.501C227.484 47.376 228.634 46.351 230.534 46.351C233.434 46.351 235.084 48.226 235.084 51.326V60.001H231.284V52.526C231.284 50.726 230.459 49.801 228.984 49.801C227.509 49.801 226.609 50.726 226.609 52.526V60.001H222.809Z" fill="white"/>
<path d="M38.3453 16.2472C39.7604 15.1559 40.468 14.6103 40.5569 14.1086C40.6375 13.6545 40.4771 13.1851 40.1311 12.8622C39.7489 12.5055 38.8385 12.4575 37.0178 12.3616L4.58251 10.6526C3.13128 10.5761 2.40566 10.5379 2.02201 10.8061C1.67345 11.0498 1.46497 11.4428 1.45846 11.8685C1.45129 12.337 1.88904 12.9179 2.76454 14.0797L21.4191 38.8348C22.3925 40.1266 22.8792 40.7725 23.3635 40.8985C23.8027 41.0128 24.2653 40.9108 24.6034 40.6252C24.9761 40.3104 25.1021 39.5295 25.3539 37.9676L27.3769 25.4224C27.4252 25.1228 27.4494 24.973 27.5042 24.8366C27.5549 24.7105 27.6248 24.5931 27.7116 24.4883C27.8055 24.3751 27.9257 24.2823 28.1663 24.0968L38.3453 16.2472Z" fill="#C2421B"/>
</svg>
