<svg width="205" height="67" viewBox="0 0 205 67" fill="none" xmlns="http://www.w3.org/2000/svg">
<rect y="16.3988" width="173" height="50" rx="25" fill="#A00806"/>
<path d="M20.0571 50.3988V32.8988H23.1321V41.6988L31.4321 32.8988H35.2571L27.9571 40.4238L35.5821 50.3988H31.8321L25.8571 42.5238L23.1321 45.3238V50.3988H20.0571ZM43.8649 50.6988C39.8399 50.6988 36.8649 47.6238 36.8649 43.8738V43.8238C36.8649 40.0488 39.8649 36.9238 43.9149 36.9238C47.9899 36.9238 50.9399 39.9988 50.9399 43.7738V43.8238C50.9399 47.5488 47.9399 50.6988 43.8649 50.6988ZM43.9149 48.0488C46.3899 48.0488 47.9149 46.1488 47.9149 43.8738V43.8238C47.9149 41.4988 46.2399 39.5738 43.8649 39.5738C41.4399 39.5738 39.8899 41.4738 39.8899 43.7738V43.8238C39.8899 46.1238 41.5899 48.0488 43.9149 48.0488ZM54.6706 50.3988V32.1488H57.7206V50.3988H54.6706ZM65.9739 50.6738C63.4989 50.6738 61.2739 49.2738 61.2739 46.5988V46.5488C61.2739 43.6738 63.5239 42.2988 66.7489 42.2988C68.2489 42.2988 69.2739 42.5238 70.2989 42.8488V42.5238C70.2989 40.6238 69.1489 39.6488 67.0239 39.6488C65.5239 39.6488 64.4489 39.9738 63.2489 40.4738L62.4239 38.0988C63.8989 37.4738 65.3239 37.0238 67.4239 37.0238C69.3989 37.0238 70.8489 37.5238 71.7989 38.4988C72.7739 39.4738 73.2239 40.8488 73.2239 42.5738V50.3988H70.2739V48.7488C69.3739 49.8238 67.9989 50.6738 65.9739 50.6738ZM66.8239 48.4738C68.8239 48.4738 70.3489 47.3488 70.3489 45.6488V44.7488C69.5739 44.4488 68.5489 44.2238 67.3489 44.2238C65.3739 44.2238 64.2489 45.0238 64.2489 46.4238V46.4738C64.2489 47.7488 65.3489 48.4738 66.8239 48.4738ZM84.8718 50.6738C82.6718 50.6738 81.2968 49.5738 80.3718 48.3488V50.3988H77.3218V32.1488H80.3718V39.3988C81.3468 38.0238 82.6968 36.9238 84.8718 36.9238C87.9718 36.9238 90.9968 39.3738 90.9968 43.7738V43.8238C90.9968 48.2238 87.9968 50.6738 84.8718 50.6738ZM84.1468 48.0488C86.2218 48.0488 87.9218 46.4238 87.9218 43.8238V43.7738C87.9218 41.2238 86.1718 39.5488 84.1468 39.5488C82.0718 39.5488 80.2968 41.2488 80.2968 43.7738V43.8238C80.2968 46.3488 82.0718 48.0488 84.1468 48.0488ZM100.894 50.6988C96.8692 50.6988 93.8942 47.6238 93.8942 43.8738V43.8238C93.8942 40.0488 96.8942 36.9238 100.944 36.9238C105.019 36.9238 107.969 39.9988 107.969 43.7738V43.8238C107.969 47.5488 104.969 50.6988 100.894 50.6988ZM100.944 48.0488C103.419 48.0488 104.944 46.1488 104.944 43.8738V43.8238C104.944 41.4988 103.269 39.5738 100.894 39.5738C98.4692 39.5738 96.9192 41.4738 96.9192 43.7738V43.8238C96.9192 46.1238 98.6192 48.0488 100.944 48.0488ZM111.525 50.3988V37.1988H114.575V40.1738C115.4 38.1738 116.925 36.8488 119.25 36.9488V40.1488H119.075C116.4 40.1488 114.575 41.8738 114.575 45.3738V50.3988H111.525ZM125.542 50.6738C123.067 50.6738 120.842 49.2738 120.842 46.5988V46.5488C120.842 43.6738 123.092 42.2988 126.317 42.2988C127.817 42.2988 128.842 42.5238 129.867 42.8488V42.5238C129.867 40.6238 128.717 39.6488 126.592 39.6488C125.092 39.6488 124.017 39.9738 122.817 40.4738L121.992 38.0988C123.467 37.4738 124.892 37.0238 126.992 37.0238C128.967 37.0238 130.417 37.5238 131.367 38.4988C132.342 39.4738 132.792 40.8488 132.792 42.5738V50.3988H129.842V48.7488C128.942 49.8238 127.567 50.6738 125.542 50.6738ZM126.392 48.4738C128.392 48.4738 129.917 47.3488 129.917 45.6488V44.7488C129.142 44.4488 128.117 44.2238 126.917 44.2238C124.942 44.2238 123.817 45.0238 123.817 46.4238V46.4738C123.817 47.7488 124.917 48.4738 126.392 48.4738ZM141.44 50.6488C139.54 50.6488 137.515 49.9988 135.84 48.6738L137.19 46.6238C138.665 47.6988 140.14 48.2488 141.515 48.2488C142.815 48.2488 143.565 47.6988 143.565 46.8238V46.7738C143.565 45.7738 142.165 45.3988 140.615 44.9238C138.69 44.3988 136.49 43.5738 136.49 41.0738V41.0238C136.49 38.4988 138.565 36.9738 141.19 36.9738C142.865 36.9738 144.64 37.5488 146.04 38.4738L144.84 40.6238C143.565 39.8488 142.215 39.3738 141.115 39.3738C139.94 39.3738 139.265 39.9488 139.265 40.6738V40.7238C139.265 41.6738 140.69 42.1238 142.24 42.5988C144.14 43.1988 146.34 44.0738 146.34 46.4488V46.4988C146.34 49.2738 144.19 50.6488 141.44 50.6488ZM149.99 35.1738V32.2988H153.24V35.1738H149.99ZM150.09 50.3988V37.1988H153.14V50.3988H150.09Z" fill="white"/>
<path d="M186.879 32.1295C187.426 33.7629 187.7 34.5796 188.135 34.8417C188.529 35.0791 189.015 35.1043 189.43 34.9087C189.888 34.6928 190.241 33.9085 190.945 32.3399L202.17 7.35686C202.759 6.04585 203.053 5.39035 202.941 4.93098C202.839 4.51362 202.548 4.16742 202.154 3.99502C201.721 3.80527 201.025 3.98248 199.632 4.33691L173.33 11.0297C171.703 11.4439 170.889 11.651 170.597 12.0603C170.333 12.4312 170.27 12.9093 170.429 13.337C170.605 13.8088 171.337 14.2231 172.802 15.0518L182.381 20.4724C182.649 20.6241 182.783 20.6999 182.894 20.7999C182.997 20.8923 183.086 20.9997 183.157 21.1184C183.234 21.2469 183.283 21.3929 183.38 21.6849L186.879 32.1295Z" fill="#A00806"/>
</svg>
