<svg width="268" height="95" viewBox="0 0 268 95" fill="none" xmlns="http://www.w3.org/2000/svg">
<rect y="44.6055" width="215" height="50" rx="25" fill="#4A0000"/>
<path d="M21.2235 78.6055V61.1055H25.0735V68.7555L32.1235 61.1055H36.8485L29.6985 68.5305L37.1485 78.6055H32.5235L27.0985 71.1555L25.0735 73.2555V78.6055H21.2235ZM45.1784 78.9055C41.1534 78.9055 38.1784 76.0805 38.1784 71.9805V71.9305C38.1784 68.1055 40.9034 64.9555 44.8034 64.9555C49.2784 64.9555 51.3284 68.4305 51.3284 72.2305C51.3284 72.5305 51.3034 72.8555 51.2784 73.2305H41.9534C42.3284 74.9555 43.5284 75.8555 45.2284 75.8555C46.5034 75.8555 47.4034 75.4555 48.4784 74.4805L50.6534 76.4055C49.3784 77.9805 47.6034 78.9055 45.1784 78.9055ZM41.9034 70.8555H47.6284C47.4034 69.1555 46.4034 68.0055 44.8034 68.0055C43.2034 68.0055 42.2034 69.1305 41.9034 70.8555ZM62.6354 78.8555C60.6104 78.8555 59.3604 77.9305 58.4604 76.8555V78.6055H54.6604V60.3555H58.4604V67.1305C59.3854 65.8555 60.6354 64.9555 62.6354 64.9555C65.7604 64.9555 68.7355 67.4055 68.7355 71.8805V71.9305C68.7355 76.4055 65.8104 78.8555 62.6354 78.8555ZM61.6604 75.6305C63.4354 75.6305 64.9355 74.1805 64.9355 71.9305V71.8805C64.9355 69.6555 63.4354 68.1805 61.6604 68.1805C59.8854 68.1805 58.4104 69.6555 58.4104 71.8805V71.9305C58.4104 74.1555 59.8854 75.6305 61.6604 75.6305ZM78.3806 78.9055C74.3556 78.9055 71.3806 76.0805 71.3806 71.9805V71.9305C71.3806 68.1055 74.1056 64.9555 78.0056 64.9555C82.4806 64.9555 84.5306 68.4305 84.5306 72.2305C84.5306 72.5305 84.5056 72.8555 84.4806 73.2305H75.1556C75.5306 74.9555 76.7306 75.8555 78.4306 75.8555C79.7056 75.8555 80.6056 75.4555 81.6806 74.4805L83.8556 76.4055C82.5806 77.9805 80.8056 78.9055 78.3806 78.9055ZM75.1056 70.8555H80.8306C80.6056 69.1555 79.6056 68.0055 78.0056 68.0055C76.4056 68.0055 75.4056 69.1305 75.1056 70.8555ZM87.8626 78.6055V65.2055H91.6626V67.9055C92.4376 66.0805 93.6626 64.8555 95.9376 64.9555V68.9305H95.7376C93.2126 68.9305 91.6626 70.4305 91.6626 73.6555V78.6055H87.8626ZM103.512 78.8555C101.612 78.8555 99.5618 78.2305 97.7618 76.8305L99.3868 74.3305C100.862 75.4055 102.337 75.9305 103.612 75.9305C104.712 75.9305 105.212 75.5305 105.212 74.9305V74.8805C105.212 74.0555 103.912 73.8055 102.437 73.3305C100.562 72.8055 98.4368 71.9055 98.4368 69.3055V69.2555C98.4368 66.5305 100.637 65.0055 103.337 65.0055C105.037 65.0055 106.862 65.5805 108.337 66.5555L106.887 69.1805C105.562 68.4055 104.237 67.9305 103.262 67.9305C102.337 67.9305 101.862 68.3305 101.862 68.8555V68.9055C101.862 69.6055 103.137 70.0555 104.587 70.5055C106.462 71.1055 108.637 72.0305 108.637 74.4805V74.5305C108.637 77.5055 106.412 78.8555 103.512 78.8555ZM115.661 78.8555C113.136 78.8555 111.061 77.4305 111.061 74.7555V74.7055C111.061 71.8055 113.286 70.4305 116.461 70.4305C117.836 70.4305 118.761 70.6555 119.736 70.9805V70.7555C119.736 69.1555 118.761 68.3055 116.861 68.3055C115.386 68.3055 114.386 68.5555 113.161 69.0305L112.211 66.1305C113.686 65.5055 115.136 65.0555 117.411 65.0555C119.511 65.0555 120.961 65.5805 121.936 66.5555C122.936 67.5555 123.386 69.0305 123.386 70.8305V78.6055H119.711V77.1555C118.786 78.1805 117.536 78.8555 115.661 78.8555ZM116.811 76.2305C118.611 76.2305 119.786 75.2805 119.786 73.8805V73.2055C119.111 72.9055 118.286 72.7055 117.361 72.7055C115.736 72.7055 114.736 73.3555 114.736 74.5555V74.6055C114.736 75.6305 115.586 76.2305 116.811 76.2305ZM127.156 78.6055V65.2055H130.956V67.1055C131.831 65.9805 132.981 64.9555 134.906 64.9555C136.681 64.9555 137.981 65.7055 138.681 67.0805C139.856 65.6805 141.256 64.9555 143.081 64.9555C145.906 64.9555 147.606 66.6555 147.606 69.8805V78.6055H143.806V71.1305C143.806 69.3305 143.006 68.4055 141.581 68.4055C140.156 68.4055 139.281 69.3305 139.281 71.1305V78.6055H135.481V71.1305C135.481 69.3305 134.681 68.4055 133.256 68.4055C131.831 68.4055 130.956 69.3305 130.956 71.1305V78.6055H127.156ZM155.21 78.8555C152.685 78.8555 150.61 77.4305 150.61 74.7555V74.7055C150.61 71.8055 152.835 70.4305 156.01 70.4305C157.385 70.4305 158.31 70.6555 159.285 70.9805V70.7555C159.285 69.1555 158.31 68.3055 156.41 68.3055C154.935 68.3055 153.935 68.5555 152.71 69.0305L151.76 66.1305C153.235 65.5055 154.685 65.0555 156.96 65.0555C159.06 65.0555 160.51 65.5805 161.485 66.5555C162.485 67.5555 162.935 69.0305 162.935 70.8305V78.6055H159.26V77.1555C158.335 78.1805 157.085 78.8555 155.21 78.8555ZM156.36 76.2305C158.16 76.2305 159.335 75.2805 159.335 73.8805V73.2055C158.66 72.9055 157.835 72.7055 156.91 72.7055C155.285 72.7055 154.285 73.3555 154.285 74.5555V74.6055C154.285 75.6305 155.135 76.2305 156.36 76.2305ZM170.505 78.8555C167.98 78.8555 165.905 77.4305 165.905 74.7555V74.7055C165.905 71.8055 168.13 70.4305 171.305 70.4305C172.68 70.4305 173.605 70.6555 174.58 70.9805V70.7555C174.58 69.1555 173.605 68.3055 171.705 68.3055C170.23 68.3055 169.23 68.5555 168.005 69.0305L167.055 66.1305C168.53 65.5055 169.98 65.0555 172.255 65.0555C174.355 65.0555 175.805 65.5805 176.78 66.5555C177.78 67.5555 178.23 69.0305 178.23 70.8305V78.6055H174.555V77.1555C173.63 78.1805 172.38 78.8555 170.505 78.8555ZM171.655 76.2305C173.455 76.2305 174.63 75.2805 174.63 73.8805V73.2055C173.955 72.9055 173.13 72.7055 172.205 72.7055C170.58 72.7055 169.58 73.3555 169.58 74.5555V74.6055C169.58 75.6305 170.43 76.2305 171.655 76.2305ZM182 78.6055V65.2055H185.8V67.1055C186.675 65.9805 187.825 64.9555 189.725 64.9555C192.625 64.9555 194.275 66.8305 194.275 69.9305V78.6055H190.475V71.1305C190.475 69.3305 189.65 68.4055 188.175 68.4055C186.7 68.4055 185.8 69.3305 185.8 71.1305V78.6055H182Z" fill="white"/>
<path d="M251.506 26.5541C252.162 27.7741 252.489 28.3841 252.914 28.5649C253.301 28.7293 253.748 28.7032 254.124 28.4943C254.539 28.2644 254.834 27.618 255.424 26.3253L265.508 4.24456C266.121 2.90291 266.427 2.23209 266.318 1.77343C266.218 1.3568 265.928 1.01734 265.532 0.856695C265.097 0.67984 264.391 0.884157 262.979 1.29279L236.093 9.07417C234.095 9.65219 233.097 9.94121 232.805 10.4019C232.541 10.8181 232.512 11.3355 232.729 11.7629C232.969 12.2359 233.933 12.5706 235.86 13.2398L245.529 16.5969C245.812 16.6951 245.953 16.7441 246.076 16.8201C246.19 16.8905 246.292 16.9776 246.38 17.0788C246.474 17.1883 246.545 17.3195 246.686 17.5821L251.506 26.5541Z" fill="#4A0000"/>
</svg>
