<svg width="259" height="92" viewBox="0 0 259 92" fill="none" xmlns="http://www.w3.org/2000/svg">
<rect x="44.0002" width="215" height="50" rx="25" fill="#C2421A"/>
<path d="M64.6076 34V16.5H68.4576V24.15L75.5076 16.5H80.2326L73.0826 23.925L80.5326 34H75.9076L70.4826 26.55L68.4576 28.65V34H64.6076ZM88.5625 34.3C84.5375 34.3 81.5625 31.475 81.5625 27.375V27.325C81.5625 23.5 84.2875 20.35 88.1875 20.35C92.6625 20.35 94.7125 23.825 94.7125 27.625C94.7125 27.925 94.6875 28.25 94.6625 28.625H85.3375C85.7125 30.35 86.9125 31.25 88.6125 31.25C89.8875 31.25 90.7875 30.85 91.8625 29.875L94.0375 31.8C92.7625 33.375 90.9875 34.3 88.5625 34.3ZM85.2875 26.25H91.0125C90.7875 24.55 89.7875 23.4 88.1875 23.4C86.5875 23.4 85.5875 24.525 85.2875 26.25ZM98.0445 34V15.75H101.844V25.475L106.294 20.6H110.844L105.744 25.875L111.019 34H106.619L103.194 28.5L101.844 29.925V34H98.0445ZM119.055 34.3C115.03 34.3 112.055 31.475 112.055 27.375V27.325C112.055 23.5 114.78 20.35 118.68 20.35C123.155 20.35 125.205 23.825 125.205 27.625C125.205 27.925 125.18 28.25 125.155 28.625H115.83C116.205 30.35 117.405 31.25 119.105 31.25C120.38 31.25 121.28 30.85 122.355 29.875L124.53 31.8C123.255 33.375 121.48 34.3 119.055 34.3ZM115.78 26.25H121.505C121.28 24.55 120.28 23.4 118.68 23.4C117.08 23.4 116.08 24.525 115.78 26.25ZM128.712 34V15.75H132.512V34H128.712ZM141.031 34.25C138.131 34.25 136.481 32.375 136.481 29.275V20.6H140.281V28.075C140.281 29.875 141.106 30.8 142.581 30.8C144.056 30.8 144.956 29.875 144.956 28.075V20.6H148.756V34H144.956V32.1C144.081 33.225 142.931 34.25 141.031 34.25ZM156.457 34.25C153.932 34.25 151.857 32.825 151.857 30.15V30.1C151.857 27.2 154.082 25.825 157.257 25.825C158.632 25.825 159.557 26.05 160.532 26.375V26.15C160.532 24.55 159.557 23.7 157.657 23.7C156.182 23.7 155.182 23.95 153.957 24.425L153.007 21.525C154.482 20.9 155.932 20.45 158.207 20.45C160.307 20.45 161.757 20.975 162.732 21.95C163.732 22.95 164.182 24.425 164.182 26.225V34H160.507V32.55C159.582 33.575 158.332 34.25 156.457 34.25ZM157.607 31.625C159.407 31.625 160.582 30.675 160.582 29.275V28.6C159.907 28.3 159.082 28.1 158.157 28.1C156.532 28.1 155.532 28.75 155.532 29.95V30C155.532 31.025 156.382 31.625 157.607 31.625ZM167.952 34V20.6H171.752V23.3C172.527 21.475 173.752 20.25 176.027 20.35V24.325H175.827C173.302 24.325 171.752 25.825 171.752 29.05V34H167.952ZM184.657 38.05C182.457 38.05 180.432 37.55 178.732 36.65L180.032 33.8C181.432 34.575 182.757 35.025 184.557 35.025C187.157 35.025 188.382 33.775 188.382 31.375V30.725C187.257 32.1 186.032 32.9 184.007 32.9C180.882 32.9 178.057 30.65 178.057 26.65V26.6C178.057 22.6 180.932 20.35 184.007 20.35C186.082 20.35 187.307 21.225 188.332 22.35V20.6H192.132V30.975C192.132 33.35 191.557 35.125 190.432 36.25C189.157 37.525 187.257 38.05 184.657 38.05ZM185.107 29.75C186.982 29.75 188.382 28.475 188.382 26.65V26.6C188.382 24.775 186.982 23.5 185.107 23.5C183.257 23.5 181.857 24.775 181.857 26.6V26.65C181.857 28.525 183.232 29.75 185.107 29.75ZM199.827 34.25C197.302 34.25 195.227 32.825 195.227 30.15V30.1C195.227 27.2 197.452 25.825 200.627 25.825C202.002 25.825 202.927 26.05 203.902 26.375V26.15C203.902 24.55 202.927 23.7 201.027 23.7C199.552 23.7 198.552 23.95 197.327 24.425L196.377 21.525C197.852 20.9 199.302 20.45 201.577 20.45C203.677 20.45 205.127 20.975 206.102 21.95C207.102 22.95 207.552 24.425 207.552 26.225V34H203.877V32.55C202.952 33.575 201.702 34.25 199.827 34.25ZM200.977 31.625C202.777 31.625 203.952 30.675 203.952 29.275V28.6C203.277 28.3 202.452 28.1 201.527 28.1C199.902 28.1 198.902 28.75 198.902 29.95V30C198.902 31.025 199.752 31.625 200.977 31.625ZM215.122 34.25C212.597 34.25 210.522 32.825 210.522 30.15V30.1C210.522 27.2 212.747 25.825 215.922 25.825C217.297 25.825 218.222 26.05 219.197 26.375V26.15C219.197 24.55 218.222 23.7 216.322 23.7C214.847 23.7 213.847 23.95 212.622 24.425L211.672 21.525C213.147 20.9 214.597 20.45 216.872 20.45C218.972 20.45 220.422 20.975 221.397 21.95C222.397 22.95 222.847 24.425 222.847 26.225V34H219.172V32.55C218.247 33.575 216.997 34.25 215.122 34.25ZM216.272 31.625C218.072 31.625 219.247 30.675 219.247 29.275V28.6C218.572 28.3 217.747 28.1 216.822 28.1C215.197 28.1 214.197 28.75 214.197 29.95V30C214.197 31.025 215.047 31.625 216.272 31.625ZM226.617 34V20.6H230.417V22.5C231.292 21.375 232.442 20.35 234.342 20.35C237.242 20.35 238.892 22.225 238.892 25.325V34H235.092V26.525C235.092 24.725 234.267 23.8 232.792 23.8C231.317 23.8 230.417 24.725 230.417 26.525V34H226.617Z" fill="white"/>
<path d="M20.6198 63.6679C20.19 62.3875 19.975 61.7472 19.5838 61.5247C19.2282 61.3224 18.7774 61.3026 18.3638 61.471C17.9086 61.6563 17.4974 62.269 16.6751 63.4944L2.66758 84.3685C1.82421 85.6253 1.40252 86.2537 1.43064 86.7146C1.45619 87.1332 1.68565 87.4948 2.05037 87.6911C2.45189 87.9072 3.18909 87.7759 4.66349 87.5134L32.7794 82.5075C34.8461 82.1396 35.8794 81.9556 36.2507 81.5337C36.5862 81.1524 36.7075 80.649 36.5702 80.2083C36.4183 79.7206 35.5318 79.2954 33.7589 78.4451L24.7299 74.1144C24.4667 73.9882 24.3352 73.9251 24.2265 73.8373C24.126 73.7561 24.0402 73.6595 23.972 73.5508C23.8981 73.4331 23.8522 73.2965 23.7605 73.0233L20.6198 63.6679Z" fill="#C2421A"/>
</svg>
