<svg width="766" height="610" viewBox="0 0 766 610" fill="none" xmlns="http://www.w3.org/2000/svg">
<path d="M81.5471 208.019L46.2346 301.958C46.2346 301.958 142.786 336.544 145.468 335.69C148.15 334.836 162.006 331.42 159.771 316.476C157.536 301.531 154.407 261.393 195.084 258.831C235.76 256.269 243.022 288.294 244.253 298.115C245.484 307.936 243.359 321.173 226.374 332.701C209.388 344.23 213.411 356.186 215.646 357.467C217.881 358.748 316.666 394.188 316.666 394.188C316.666 394.188 353.32 311.352 351.085 298.542C348.85 285.732 339.016 287.44 339.016 287.44C339.016 287.44 281.801 299.396 273.755 262.674C265.709 225.953 286.944 206.066 314.878 206.738C331.97 207.149 345.274 224.245 351.979 228.942C358.684 233.639 361.813 236.628 372.541 234.066C383.269 231.504 413.217 136.711 413.217 136.711C413.217 136.711 319.348 105.541 314.431 101.271C309.515 97.0008 310.855 81.629 316.666 79.921C322.477 78.213 362.704 38.5005 325.606 11.1749C288.509 -16.1506 262.13 14.5878 259.451 19.7138C256.772 24.8397 253.637 38.9265 256.322 51.7394C259.007 64.5523 256.322 78.637 242.018 77.359C227.715 76.0811 143.68 44.0535 143.68 44.0535C143.68 44.0535 111.496 133.295 106.132 140.127C100.768 146.959 86.9132 143.543 79.7591 133.295C72.605 123.048 39.976 102.552 18.0722 123.048C-3.83155 143.543 -6.25288 170.389 13.1566 187.524C27.1535 199.88 43.9981 194.356 61.4323 194.355C78.8666 194.355 81.5471 208.019 81.5471 208.019Z" fill="#4A0000"/>
<path d="M175.516 204.53L161.366 169.28H169.866L179.016 193.93L188.166 169.28H196.466L182.316 204.53H175.516ZM200.239 174.53V167.78H208.239V174.53H200.239ZM200.439 204.28V177.48H208.039V204.28H200.439ZM224.577 204.78C220.777 204.78 216.677 203.53 213.077 200.73L216.327 195.73C219.277 197.88 222.227 198.93 224.777 198.93C226.977 198.93 227.977 198.13 227.977 196.93V196.83C227.977 195.18 225.377 194.68 222.427 193.73C218.677 192.68 214.427 190.88 214.427 185.68V185.58C214.427 180.13 218.827 177.08 224.227 177.08C227.627 177.08 231.277 178.23 234.227 180.18L231.327 185.43C228.677 183.88 226.027 182.93 224.077 182.93C222.227 182.93 221.277 183.73 221.277 184.78V184.88C221.277 186.28 223.827 187.18 226.727 188.08C230.477 189.28 234.827 191.13 234.827 196.03V196.13C234.827 202.08 230.377 204.78 224.577 204.78ZM240.425 174.53V167.78H248.425V174.53H240.425ZM240.625 204.28V177.48H248.225V204.28H240.625Z" fill="white"/>
<path d="M431.201 350.388C423.602 361.917 361.023 422.123 361.023 422.123C361.023 422.123 429.413 481.902 434.33 488.307C439.247 494.712 440.588 508.803 428.072 513.073C415.556 517.343 400.93 519.16 391.866 531.861C385.068 541.384 382.677 549.043 384.267 560.469C386.599 577.233 397.199 587.392 413.768 593.348C423.756 596.938 430.749 597.77 441.035 595.056C460.83 589.833 471.142 561.323 471.431 554.064C471.72 546.805 480.37 534.85 492.886 541.681C505.402 548.513 569.322 610 569.322 610C569.322 610 639.054 542.108 639.948 537.839C640.842 533.569 643.002 520.332 626.985 517.77C610.967 515.208 610.215 515.233 601.953 509.23C592.82 502.594 588.646 496.379 585.861 485.745C578.757 458.616 604.188 427.247 636.819 433.225C669.449 439.203 664.085 471.227 675.26 479.34C686.435 487.453 691.799 482.756 697.61 480.194C703.421 477.632 766 410.167 766 410.167L690.011 340.994C690.011 340.994 682.859 328.612 698.057 322.634C713.255 316.656 742.309 312.386 742.309 283.777C742.309 255.169 717.278 234.673 690.905 237.662C664.532 240.651 658.274 270.54 655.592 279.507C652.91 288.474 643.077 296.587 633.243 291.036C623.409 285.485 557.254 222.29 557.254 222.29C557.254 222.29 485.734 295.733 482.158 297.014C478.583 298.295 465.62 299.576 462.938 285.912C460.256 272.248 445.058 242.786 414.215 245.775C383.373 248.764 373.092 279.08 375.774 297.014C378.456 314.948 398.57 326.904 410.639 327.331C422.708 327.758 438.8 338.859 431.201 350.388Z" fill="#C2421A"/>
<path d="M512.859 413V378H521.159L530.359 392.8L539.559 378H547.859V413H540.209V390.15L530.359 405.1H530.159L520.409 390.3V413H512.859ZM555.617 383.25V376.5H563.617V383.25H555.617ZM555.817 413V386.2H563.417V413H555.817ZM579.955 413.5C576.155 413.5 572.055 412.25 568.455 409.45L571.705 404.45C574.655 406.6 577.605 407.65 580.155 407.65C582.355 407.65 583.355 406.85 583.355 405.65V405.55C583.355 403.9 580.755 403.4 577.805 402.45C574.055 401.4 569.805 399.6 569.805 394.4V394.3C569.805 388.85 574.205 385.8 579.605 385.8C583.005 385.8 586.655 386.95 589.605 388.9L586.705 394.15C584.055 392.6 581.405 391.65 579.455 391.65C577.605 391.65 576.655 392.45 576.655 393.5V393.6C576.655 395 579.205 395.9 582.105 396.8C585.855 398 590.205 399.85 590.205 404.75V404.85C590.205 410.8 585.755 413.5 579.955 413.5ZM595.803 383.25V376.5H603.803V383.25H595.803ZM596.003 413V386.2H603.603V413H596.003Z" fill="white"/>
</svg>
